<svg width="18" height="25" viewBox="0 0 18 25" fill="none" xmlns="http://www.w3.org/2000/svg">
<path d="M11.7806 18.0363C11.8051 19.5548 11.2117 20.9396 10.2326 21.9508C9.25344 22.962 7.88854 23.5997 6.36996 23.6242C4.85137 23.6487 3.46663 23.0553 2.45541 22.0762C1.44419 21.097 0.806504 19.7321 0.782025 18.2136L0.588611 6.21511C0.564132 4.69652 1.1575 3.31178 2.13663 2.30056C3.11576 1.28935 4.48066 0.651655 5.99925 0.627176C7.51784 0.602697 8.90258 1.19606 9.9138 2.1752C10.925 3.15433 11.5627 4.51923 11.5872 6.03781L11.7806 18.0363Z" fill="url(#paint0_linear_536_12781)" stroke="white"/>
<path d="M4.28153 18.1571C4.29934 19.2616 5.20908 20.1424 6.31351 20.1246C7.41794 20.1068 8.29882 19.1971 8.28101 18.0927C8.26321 16.9882 7.35347 16.1074 6.24904 16.1252C5.14461 16.143 4.26373 17.0527 4.28153 18.1571Z" fill="white"/>
<path d="M16.7316 14.9561C16.7427 15.6463 16.473 16.2758 16.028 16.7354C15.5829 17.195 14.9625 17.4849 14.2722 17.496C13.582 17.5072 12.9525 17.2374 12.4929 16.7924C12.0332 16.3473 11.7434 15.7269 11.7323 15.0367L11.6355 9.03743C11.6244 8.34717 11.8941 7.71774 12.3392 7.25809C12.7843 6.79845 13.4047 6.50859 14.0949 6.49746C14.7852 6.48634 15.4146 6.75605 15.8743 7.20111C16.3339 7.64617 16.6238 8.26658 16.6349 8.95684L16.7316 14.9561Z" fill="url(#paint1_linear_536_12781)" stroke="white"/>
<defs>
<linearGradient id="paint0_linear_536_12781" x1="9.57301" y1="1.40852" x2="3.89959" y2="22.3623" gradientUnits="userSpaceOnUse">
<stop stop-color="#7DF0FF"/>
<stop offset="1" stop-color="#4F9EFF"/>
</linearGradient>
<linearGradient id="paint1_linear_536_12781" x1="15.7197" y1="6.87251" x2="12.8797" y2="16.8147" gradientUnits="userSpaceOnUse">
<stop stop-color="#7DF0FF"/>
<stop offset="1" stop-color="#4F9EFF"/>
</linearGradient>
</defs>
</svg>
