<svg width="43" height="43" viewBox="0 0 43 43" fill="none" xmlns="http://www.w3.org/2000/svg">
<path d="M29.2816 30.1451C34.4755 25.5973 34.9993 17.7001 30.4515 12.5062C25.9037 7.31227 18.0065 6.7885 12.8126 11.3363C7.6187 15.8841 7.09492 23.7813 11.6427 28.9752C16.1905 34.1691 24.0877 34.6929 29.2816 30.1451Z" fill="white" fill-opacity="0.5"/>
<path d="M25.0142 25.4218C27.5073 23.2388 27.7587 19.4482 25.5758 16.9551C23.3928 14.462 19.6022 14.2106 17.1091 16.3935C14.616 18.5765 14.3646 22.3671 16.5475 24.8602C18.7305 27.3533 22.5211 27.6047 25.0142 25.4218Z" fill="url(#paint0_linear_493_5427)" stroke="white"/>
<path fill-rule="evenodd" clip-rule="evenodd" d="M5.23778 37.4538L11.6553 36.3073C11.902 36.263 11.9912 35.9621 11.8136 35.7815L6.65171 30.5309C6.47317 30.3493 6.17181 30.4343 6.12236 30.6792L4.8676 37.0773C4.82391 37.296 5.01835 37.4938 5.23778 37.4538Z" fill="#5EB9FF" stroke="white"/>
<path fill-rule="evenodd" clip-rule="evenodd" d="M37.5705 5.22898L36.3403 11.631C36.2927 11.8771 35.9908 11.9623 35.8124 11.7824L30.6297 6.55239C30.4505 6.37149 30.5394 6.07127 30.7849 6.02502L37.1988 4.85392C37.4181 4.81309 37.6133 5.01009 37.5705 5.22898Z" fill="#5EB9FF" stroke="white"/>
<path fill-rule="evenodd" clip-rule="evenodd" d="M37.445 36.8149L36.3332 30.3913C36.2903 30.1443 35.9899 30.0535 35.8083 30.2302L30.5298 35.3635C30.3473 35.5411 30.4306 35.8429 30.6753 35.8937L37.0664 37.1831C37.2849 37.2279 37.4838 37.0346 37.445 36.8149Z" fill="#5EB9FF" stroke="white"/>
<path fill-rule="evenodd" clip-rule="evenodd" d="M5.26564 4.43754L11.6609 5.70245C11.9067 5.75132 11.9903 6.05373 11.8094 6.23108L6.55143 11.3854C6.36956 11.5637 6.06983 11.4731 6.02491 11.2273L4.88858 4.80718C4.84893 4.58769 5.04699 4.39354 5.26564 4.43754Z" fill="#5EB9FF" stroke="white"/>
<defs>
<linearGradient id="paint0_linear_493_5427" x1="14.3179" y1="21.6495" x2="24.0706" y2="15.2287" gradientUnits="userSpaceOnUse">
<stop stop-color="#7DF0FF"/>
<stop offset="1" stop-color="#4F9EFF"/>
</linearGradient>
</defs>
</svg>
