{
  "accessors": [
    {
      "bufferView": 0,
      "componentType": 5126,
      "count": 2595,
      "max": [
        64.27164459228516,
        64.05635833740234,
        114.5478286743164
      ],
      "min": [
        -64.29513549804688,
        -64.07781982421875,
        -114.50371551513672
      ],
      "type": "VEC3"
    },
    {
      "bufferView": 0,
      "byteOffset": 12,
      "componentType": 5126,
      "count": 2595,
      "type": "VEC3"
    },
    {
      "bufferView": 0,
      "byteOffset": 24,
      "componentType": 5126,
      "count": 2595,
      "type": "VEC2"
    },
    {
      "bufferView": 0,
      "byteOffset": 32,
      "componentType": 5126,
      "count": 2595,
      "type": "VEC2"
    },
    {
      "bufferView": 0,
      "byteOffset": 40,
      "componentType": 5126,
      "count": 2595,
      "type": "VEC2"
    },
    {
      "bufferView": 1,
      "componentType": 5125,
      "count": 9636,
      "type": "SCALAR"
    },
    {
      "bufferView": 2,
      "componentType": 5126,
      "count": 4389,
      "max": [
        78.00777435302734,
        77.6782455444336,
        91.4313735961914
      ],
      "min": [
        -77.94893646240234,
        -77.7034683227539,
        -91.40721130371094
      ],
      "type": "VEC3"
    },
    {
      "bufferView": 2,
      "byteOffset": 12,
      "componentType": 5126,
      "count": 4389,
      "type": "VEC3"
    },
    {
      "bufferView": 2,
      "byteOffset": 24,
      "componentType": 5126,
      "count": 4389,
      "type": "VEC2"
    },
    {
      "bufferView": 2,
      "byteOffset": 32,
      "componentType": 5126,
      "count": 4389,
      "type": "VEC2"
    },
    {
      "bufferView": 2,
      "byteOffset": 40,
      "componentType": 5126,
      "count": 4389,
      "type": "VEC2"
    },
    {
      "bufferView": 3,
      "componentType": 5125,
      "count": 19140,
      "type": "SCALAR"
    },
    {
      "bufferView": 4,
      "componentType": 5126,
      "count": 5853,
      "max": [
        122.29821014404297,
        41.363948822021484,
        128.77293395996094
      ],
      "min": [
        -122.37895965576172,
        -41.3326301574707,
        -128.74266052246094
      ],
      "type": "VEC3"
    },
    {
      "bufferView": 4,
      "byteOffset": 12,
      "componentType": 5126,
      "count": 5853,
      "type": "VEC3"
    },
    {
      "bufferView": 4,
      "byteOffset": 24,
      "componentType": 5126,
      "count": 5853,
      "type": "VEC2"
    },
    {
      "bufferView": 4,
      "byteOffset": 32,
      "componentType": 5126,
      "count": 5853,
      "type": "VEC2"
    },
    {
      "bufferView": 4,
      "byteOffset": 40,
      "componentType": 5126,
      "count": 5853,
      "type": "VEC2"
    },
    {
      "bufferView": 5,
      "componentType": 5125,
      "count": 12816,
      "type": "SCALAR"
    }
  ],
  "asset": {
    "version": "2.0"
  },
  "bufferViews": [
    {
      "buffer": 0,
      "byteLength": 124560,
      "byteStride": 48,
      "target": 34962,
      "byteOffset": 0
    },
    {
      "buffer": 0,
      "byteLength": 38544,
      "byteOffset": 124560,
      "target": 34963
    },
    {
      "buffer": 0,
      "byteLength": 210672,
      "byteOffset": 163104,
      "byteStride": 48,
      "target": 34962
    },
    {
      "buffer": 0,
      "byteLength": 76560,
      "byteOffset": 373776,
      "target": 34963
    },
    {
      "buffer": 0,
      "byteLength": 280944,
      "byteOffset": 450336,
      "byteStride": 48,
      "target": 34962
    },
    {
      "buffer": 0,
      "byteLength": 51264,
      "byteOffset": 731280,
      "target": 34963
    }
  ],
  "buffers": [
    {
      "uri": "glb_data.bin",
      "byteLength": 782544
    }
  ],
  "images": [
    {
      "name": "SK_Glass_1_gltfbasecolortexture.png",
      "uri": "glb_img0.png"
    },
    {
      "name": "SK_Glass_1_gltfmetallicroughnesstex.jpeg",
      "uri": "glb_img1.jpg"
    },
    {
      "name": "SK_Glass_2_gltfbasecolortexture.png",
      "uri": "glb_img2.png"
    },
    {
      "name": "SK_Glass_2_gltfmetallicroughnesstex.jpeg",
      "uri": "glb_img3.jpg"
    },
    {
      "name": "SK_Solid_2_gltfbasecolortexture.jpeg",
      "uri": "glb_img4.jpg"
    },
    {
      "name": "SK_Solid_2_gltfmetallicroughnesstex.jpeg",
      "uri": "glb_img5.jpg"
    }
  ],
  "materials": [
    {
      "alphaMode": "BLEND",
      "name": "SK_Glass_1_gltf",
      "pbrMetallicRoughness": {
        "baseColorTexture": {
          "index": 0
        },
        "metallicFactor": 0.2636759877204895,
        "metallicRoughnessTexture": {
          "index": 1
        }
      }
    },
    {
      "alphaMode": "BLEND",
      "name": "SK_Glass_2_gltf",
      "pbrMetallicRoughness": {
        "baseColorTexture": {
          "index": 2
        },
        "metallicFactor": 0.2636759877204895,
        "metallicRoughnessTexture": {
          "index": 3
        }
      }
    },
    {
      "name": "SK_Solid_2_gltf",
      "pbrMetallicRoughness": {
        "baseColorTexture": {
          "index": 4
        },
        "metallicFactor": 0.7117760181427002,
        "metallicRoughnessTexture": {
          "index": 5
        }
      }
    }
  ],
  "meshes": [
    {
      "name": "SK_Glass_1",
      "primitives": [
        {
          "attributes": {
            "NORMAL": 1,
            "POSITION": 0,
            "TEXCOORD_0": 2,
            "TEXCOORD_1": 3,
            "TEXCOORD_2": 4
          },
          "indices": 5,
          "material": 0,
          "mode": 4
        }
      ]
    },
    {
      "name": "SK_Glass_2",
      "primitives": [
        {
          "attributes": {
            "NORMAL": 7,
            "POSITION": 6,
            "TEXCOORD_0": 8,
            "TEXCOORD_1": 9,
            "TEXCOORD_2": 10
          },
          "indices": 11,
          "material": 1,
          "mode": 4
        }
      ]
    },
    {
      "name": "SK_Solid_2",
      "primitives": [
        {
          "attributes": {
            "NORMAL": 13,
            "POSITION": 12,
            "TEXCOORD_0": 14,
            "TEXCOORD_1": 15,
            "TEXCOORD_2": 16
          },
          "indices": 17,
          "material": 2,
          "mode": 4
        }
      ]
    }
  ],
  "nodes": [
    {
      "matrix": [
        0.001,
        0,
        0,
        0,
        0,
        0.001,
        0,
        0,
        0,
        0,
        0.001,
        0,
        0,
        0,
        0,
        1
      ],
      "mesh": 0,
      "name": "SK_Glass_1"
    },
    {
      "children": [
        0
      ],
      "matrix": [
        1,
        0,
        1.7484555314695172e-7,
        0,
        1.7484555314695172e-7,
        -1.7484555314695172e-7,
        -1,
        0,
        3.057096744263528e-14,
        1,
        -1.7484555314695172e-7,
        0,
        -0.12877374267578126,
        -0.05029635238647461,
        0.012551746368408204,
        1
      ]
    },
    {
      "matrix": [
        0.001,
        0,
        0,
        0,
        0,
        0.001,
        0,
        0,
        0,
        0,
        0.001,
        0,
        0,
        0,
        0,
        1
      ],
      "mesh": 1,
      "name": "SK_Glass_2"
    },
    {
      "children": [
        2
      ],
      "matrix": [
        1,
        0,
        1.7484555314695172e-7,
        0,
        1.7484555314695172e-7,
        -1.7484555314695172e-7,
        -1,
        0,
        3.057096744263528e-14,
        1,
        -1.7484555314695172e-7,
        0,
        0.05654869842529297,
        -0.07274776458740234,
        -1.5714627807028593e-8,
        1
      ]
    },
    {
      "matrix": [
        0.001,
        0,
        0,
        0,
        0,
        0.001,
        0,
        0,
        0,
        0,
        0.001,
        0,
        0,
        0,
        0,
        1
      ],
      "mesh": 2,
      "name": "SK_Solid_2"
    },
    {
      "children": [
        4
      ],
      "matrix": [
        1,
        0,
        1.7484555314695172e-7,
        0,
        1.7484555314695172e-7,
        -1.7484555314695172e-7,
        -1,
        0,
        3.057096744263528e-14,
        1,
        -1.7484555314695172e-7,
        0,
        0.0707554702758789,
        0.03607969665527344,
        0.016765525817871094,
        1
      ]
    }
  ],
  "samplers": [
    {
      "magFilter": 9729,
      "minFilter": 9729,
      "wrapS": 10497,
      "wrapT": 10497
    },
    {
      "magFilter": 9729,
      "minFilter": 9729,
      "wrapS": 10497,
      "wrapT": 10497
    },
    {
      "magFilter": 9729,
      "minFilter": 9729,
      "wrapS": 10497,
      "wrapT": 10497
    },
    {
      "magFilter": 9729,
      "minFilter": 9729,
      "wrapS": 10497,
      "wrapT": 10497
    },
    {
      "magFilter": 9729,
      "minFilter": 9729,
      "wrapS": 10497,
      "wrapT": 10497
    },
    {
      "magFilter": 9729,
      "minFilter": 9729,
      "wrapS": 10497,
      "wrapT": 10497
    }
  ],
  "scenes": [
    {
      "nodes": [
        1,
        3,
        5
      ]
    }
  ],
  "textures": [
    {
      "name": "texture_source0_sampler0",
      "sampler": 0,
      "source": 0
    },
    {
      "name": "texture_source1_sampler1",
      "sampler": 1,
      "source": 1
    },
    {
      "name": "texture_source2_sampler2",
      "sampler": 2,
      "source": 2
    },
    {
      "name": "texture_source3_sampler3",
      "sampler": 3,
      "source": 3
    },
    {
      "name": "texture_source4_sampler4",
      "sampler": 4,
      "source": 4
    },
    {
      "name": "texture_source5_sampler5",
      "sampler": 5,
      "source": 5
    }
  ]
}